# xmcd CD database file generated by Grip 3.0.3
#
# Track frame offsets:
#       150
#       12750
#       25752
#       41552
#       58097
#       72210
#       88595
#       104522
#       120440
#       136322
#       155502
#
# Disc length: 2618 seconds
#
# Revision: 3
# Processed by: cddbd v1.4PL0 Copyright (c) Steve Scherf et al.
# Submitted via: Grip 3.0.3
#
DISCID=890a380b
DTITLE=Road Riders - This night is ours
DYEAR=1900
DGENRE=
TTITLE0=Bettin' my heart on you
TTITLE1=I'm not supposed to feel this way about you
TTITLE2=Love is
TTITLE3=You just never know
TTITLE4=I wanna feel like a woman
TTITLE5=She's still rockin' in Boston
TTITLE6=This night is ours
TTITLE7=Our love is stronger than that
TTITLE8=Gypsie heart
TTITLE9=Slow dancin' romancin' night
TTITLE10=Forever for a while
EXTD=
EXTT0=
EXTT1=
EXTT2=
EXTT3=
EXTT4=
EXTT5=
EXTT6=
EXTT7=
EXTT8=
EXTT9=
EXTT10=
PLAYORDER=
